<mxfile host="app.diagrams.net" modified="2023-10-24T14:07:56.376Z" agent="Mozilla/5.0 (Windows NT 10.0; Win64; x64) AppleWebKit/537.36 (KHTML, like Gecko) Chrome/118.0.0.0 Safari/537.36" etag="5MxUMIcSl0sKn2gs_ZiD" version="22.0.6" type="device">
  <diagram name="Page-1" id="X2FeLog_ubwmcEvJWv8t">
    <mxGraphModel dx="2577" dy="943" grid="1" gridSize="10" guides="1" tooltips="1" connect="1" arrows="1" fold="1" page="1" pageScale="1" pageWidth="827" pageHeight="1169" math="0" shadow="0">
      <root>
        <mxCell id="0" />
        <mxCell id="1" parent="0" />
        <mxCell id="Phao7U0Y4ZMj5dp_W-zo-1" value="" style="line;strokeWidth=4;html=1;perimeter=backbonePerimeter;points=[];outlineConnect=0;" parent="1" vertex="1">
          <mxGeometry x="-730" y="405" width="970" height="10" as="geometry" />
        </mxCell>
        <mxCell id="Phao7U0Y4ZMj5dp_W-zo-2" value="" style="shape=waypoint;sketch=0;fillStyle=solid;size=6;pointerEvents=1;points=[];fillColor=none;resizable=0;rotatable=0;perimeter=centerPerimeter;snapToPoint=1;strokeWidth=3;" parent="1" vertex="1">
          <mxGeometry x="100" y="484" width="20" height="20" as="geometry" />
        </mxCell>
        <mxCell id="Phao7U0Y4ZMj5dp_W-zo-4" value="" style="line;strokeWidth=3;html=1;rotation=90;" parent="1" vertex="1">
          <mxGeometry x="70" y="447" width="80" height="10" as="geometry" />
        </mxCell>
        <mxCell id="Phao7U0Y4ZMj5dp_W-zo-6" value="" style="line;strokeWidth=3;html=1;rotation=-60;" parent="1" vertex="1">
          <mxGeometry x="34.82999999999993" y="519" width="100" height="34" as="geometry" />
        </mxCell>
        <mxCell id="Phao7U0Y4ZMj5dp_W-zo-7" value="" style="line;strokeWidth=3;html=1;rotation=0;" parent="1" vertex="1">
          <mxGeometry x="10" y="478" width="100" height="34" as="geometry" />
        </mxCell>
        <mxCell id="Phao7U0Y4ZMj5dp_W-zo-8" value="" style="line;strokeWidth=3;html=1;rotation=0;" parent="1" vertex="1">
          <mxGeometry x="110" y="478" width="100" height="34" as="geometry" />
        </mxCell>
        <mxCell id="Phao7U0Y4ZMj5dp_W-zo-9" value="" style="line;strokeWidth=3;html=1;rotation=-120;" parent="1" vertex="1">
          <mxGeometry x="85.82999999999993" y="521" width="100" height="34" as="geometry" />
        </mxCell>
        <mxCell id="Phao7U0Y4ZMj5dp_W-zo-10" value="" style="line;strokeWidth=3;html=1;rotation=90;" parent="1" vertex="1">
          <mxGeometry x="60" y="541" width="100" height="10" as="geometry" />
        </mxCell>
        <mxCell id="Phao7U0Y4ZMj5dp_W-zo-19" value="" style="shape=waypoint;sketch=0;fillStyle=solid;size=6;pointerEvents=1;points=[];fillColor=none;resizable=0;rotatable=0;perimeter=centerPerimeter;snapToPoint=1;strokeWidth=3;" parent="1" vertex="1">
          <mxGeometry x="230" y="320" width="20" height="20" as="geometry" />
        </mxCell>
        <mxCell id="Phao7U0Y4ZMj5dp_W-zo-20" value="" style="line;strokeWidth=4;html=1;rotation=90;" parent="1" vertex="1">
          <mxGeometry x="200" y="367" width="80" height="10" as="geometry" />
        </mxCell>
        <mxCell id="Phao7U0Y4ZMj5dp_W-zo-21" value="" style="line;strokeWidth=3;html=1;rotation=60;" parent="1" vertex="1">
          <mxGeometry x="164.83000000000015" y="270" width="100" height="34" as="geometry" />
        </mxCell>
        <mxCell id="Phao7U0Y4ZMj5dp_W-zo-22" value="" style="line;strokeWidth=3;html=1;rotation=0;" parent="1" vertex="1">
          <mxGeometry x="140" y="314" width="100" height="34" as="geometry" />
        </mxCell>
        <mxCell id="Phao7U0Y4ZMj5dp_W-zo-23" value="" style="line;strokeWidth=2;html=1;rotation=0;" parent="1" vertex="1">
          <mxGeometry x="240" y="314" width="100" height="34" as="geometry" />
        </mxCell>
        <mxCell id="Phao7U0Y4ZMj5dp_W-zo-24" value="" style="line;strokeWidth=2;html=1;rotation=-240;" parent="1" vertex="1">
          <mxGeometry x="214.83000000000015" y="270" width="100" height="34" as="geometry" />
        </mxCell>
        <mxCell id="Phao7U0Y4ZMj5dp_W-zo-25" value="" style="line;strokeWidth=3;html=1;rotation=90;" parent="1" vertex="1">
          <mxGeometry x="190" y="275" width="100" height="10" as="geometry" />
        </mxCell>
        <mxCell id="Phao7U0Y4ZMj5dp_W-zo-26" value="" style="shape=waypoint;sketch=0;fillStyle=solid;size=6;pointerEvents=1;points=[];fillColor=none;resizable=0;rotatable=0;perimeter=centerPerimeter;snapToPoint=1;strokeWidth=3;" parent="1" vertex="1">
          <mxGeometry x="-50" y="320" width="20" height="20" as="geometry" />
        </mxCell>
        <mxCell id="Phao7U0Y4ZMj5dp_W-zo-27" value="" style="line;strokeWidth=3;html=1;rotation=90;" parent="1" vertex="1">
          <mxGeometry x="-80" y="367" width="80" height="10" as="geometry" />
        </mxCell>
        <mxCell id="Phao7U0Y4ZMj5dp_W-zo-28" value="" style="line;strokeWidth=3;html=1;rotation=60;" parent="1" vertex="1">
          <mxGeometry x="-115.16999999999985" y="270" width="100" height="34" as="geometry" />
        </mxCell>
        <mxCell id="Phao7U0Y4ZMj5dp_W-zo-29" value="" style="line;strokeWidth=3;html=1;rotation=0;" parent="1" vertex="1">
          <mxGeometry x="-140" y="314" width="100" height="34" as="geometry" />
        </mxCell>
        <mxCell id="Phao7U0Y4ZMj5dp_W-zo-30" value="" style="line;strokeWidth=3;html=1;rotation=0;" parent="1" vertex="1">
          <mxGeometry x="-40" y="314" width="100" height="34" as="geometry" />
        </mxCell>
        <mxCell id="Phao7U0Y4ZMj5dp_W-zo-31" value="" style="line;strokeWidth=3;html=1;rotation=-240;" parent="1" vertex="1">
          <mxGeometry x="-65.16999999999985" y="270" width="100" height="34" as="geometry" />
        </mxCell>
        <mxCell id="Phao7U0Y4ZMj5dp_W-zo-32" value="" style="line;strokeWidth=3;html=1;rotation=90;" parent="1" vertex="1">
          <mxGeometry x="-90" y="275" width="100" height="10" as="geometry" />
        </mxCell>
        <mxCell id="Phao7U0Y4ZMj5dp_W-zo-33" value="" style="shape=waypoint;sketch=0;fillStyle=solid;size=6;pointerEvents=1;points=[];fillColor=none;resizable=0;rotatable=0;perimeter=centerPerimeter;snapToPoint=1;strokeWidth=3;" parent="1" vertex="1">
          <mxGeometry x="-200" y="482" width="20" height="20" as="geometry" />
        </mxCell>
        <mxCell id="Phao7U0Y4ZMj5dp_W-zo-34" value="" style="line;strokeWidth=3;html=1;rotation=90;" parent="1" vertex="1">
          <mxGeometry x="-230" y="445" width="80" height="10" as="geometry" />
        </mxCell>
        <mxCell id="Phao7U0Y4ZMj5dp_W-zo-35" value="" style="line;strokeWidth=3;html=1;rotation=-60;" parent="1" vertex="1">
          <mxGeometry x="-265.1700000000001" y="517" width="100" height="34" as="geometry" />
        </mxCell>
        <mxCell id="Phao7U0Y4ZMj5dp_W-zo-36" value="" style="line;strokeWidth=2;html=1;rotation=0;" parent="1" vertex="1">
          <mxGeometry x="-290" y="476" width="100" height="34" as="geometry" />
        </mxCell>
        <mxCell id="Phao7U0Y4ZMj5dp_W-zo-37" value="" style="line;strokeWidth=2;html=1;rotation=0;" parent="1" vertex="1">
          <mxGeometry x="-190" y="476" width="100" height="34" as="geometry" />
        </mxCell>
        <mxCell id="Phao7U0Y4ZMj5dp_W-zo-38" value="" style="line;strokeWidth=3;html=1;rotation=-120;" parent="1" vertex="1">
          <mxGeometry x="-214.17000000000007" y="519" width="100" height="34" as="geometry" />
        </mxCell>
        <mxCell id="Phao7U0Y4ZMj5dp_W-zo-39" value="" style="line;strokeWidth=3;html=1;rotation=90;" parent="1" vertex="1">
          <mxGeometry x="-240" y="539" width="100" height="10" as="geometry" />
        </mxCell>
        <mxCell id="Phao7U0Y4ZMj5dp_W-zo-40" value="" style="shape=waypoint;sketch=0;fillStyle=solid;size=6;pointerEvents=1;points=[];fillColor=none;resizable=0;rotatable=0;perimeter=centerPerimeter;snapToPoint=1;strokeWidth=3;" parent="1" vertex="1">
          <mxGeometry x="-340" y="320" width="20" height="20" as="geometry" />
        </mxCell>
        <mxCell id="Phao7U0Y4ZMj5dp_W-zo-41" value="" style="line;strokeWidth=3;html=1;rotation=90;" parent="1" vertex="1">
          <mxGeometry x="-370" y="367" width="80" height="10" as="geometry" />
        </mxCell>
        <mxCell id="Phao7U0Y4ZMj5dp_W-zo-42" value="" style="line;strokeWidth=3;html=1;rotation=60;" parent="1" vertex="1">
          <mxGeometry x="-400.08" y="272.94" width="93.22" height="34" as="geometry" />
        </mxCell>
        <mxCell id="Phao7U0Y4ZMj5dp_W-zo-43" value="" style="line;strokeWidth=3;html=1;rotation=0;" parent="1" vertex="1">
          <mxGeometry x="-430" y="314" width="100" height="34" as="geometry" />
        </mxCell>
        <mxCell id="Phao7U0Y4ZMj5dp_W-zo-44" value="" style="line;strokeWidth=3;html=1;rotation=0;" parent="1" vertex="1">
          <mxGeometry x="-330" y="314" width="100" height="34" as="geometry" />
        </mxCell>
        <mxCell id="Phao7U0Y4ZMj5dp_W-zo-45" value="" style="line;strokeWidth=3;html=1;rotation=-240;" parent="1" vertex="1">
          <mxGeometry x="-355.16999999999985" y="270" width="100" height="34" as="geometry" />
        </mxCell>
        <mxCell id="Phao7U0Y4ZMj5dp_W-zo-46" value="" style="line;strokeWidth=3;html=1;rotation=90;" parent="1" vertex="1">
          <mxGeometry x="-380" y="275" width="100" height="10" as="geometry" />
        </mxCell>
        <mxCell id="pZ1TECeENT99QVJP51SH-1" value="" style="points=[[0.22,0.185,0],[0.5,0,0],[0.78,0.185,0],[0.975,0.49,0],[1,0.73,0],[0.975,0.97,0],[0.5,1,0],[0.025,0.97,0],[0,0.73,0],[0.025,0.49,0]];verticalLabelPosition=bottom;sketch=0;html=1;verticalAlign=top;aspect=fixed;align=center;pointerEvents=1;shape=mxgraph.cisco19.printer;fillColor=#005073;strokeColor=none;" vertex="1" parent="1">
          <mxGeometry x="-290" y="210" width="38.89" height="35" as="geometry" />
        </mxCell>
        <mxCell id="pZ1TECeENT99QVJP51SH-2" value="" style="shape=mxgraph.cisco.misc.access_point;html=1;pointerEvents=1;dashed=0;fillColor=#036897;strokeColor=#ffffff;strokeWidth=2;verticalLabelPosition=bottom;verticalAlign=top;align=center;outlineConnect=0;" vertex="1" parent="1">
          <mxGeometry x="-350" y="210" width="40" height="24.5" as="geometry" />
        </mxCell>
        <mxCell id="pZ1TECeENT99QVJP51SH-3" value="" style="shape=mxgraph.arrows2.wedgeArrowDashed2;html=1;bendable=0;startWidth=28;stepSize=15;rounded=0;" edge="1" parent="1">
          <mxGeometry width="100" height="100" relative="1" as="geometry">
            <mxPoint x="-330" y="120" as="sourcePoint" />
            <mxPoint x="-330" y="215.5" as="targetPoint" />
          </mxGeometry>
        </mxCell>
        <mxCell id="pZ1TECeENT99QVJP51SH-5" value="" style="points=[[0.13,0.02,0],[0.5,0,0],[0.87,0.02,0],[0.885,0.4,0],[0.985,0.985,0],[0.5,1,0],[0.015,0.985,0],[0.115,0.4,0]];verticalLabelPosition=bottom;sketch=0;html=1;verticalAlign=top;aspect=fixed;align=center;pointerEvents=1;shape=mxgraph.cisco19.laptop;fillColor=#005073;strokeColor=none;" vertex="1" parent="1">
          <mxGeometry x="-390" y="80" width="50" height="35" as="geometry" />
        </mxCell>
        <mxCell id="pZ1TECeENT99QVJP51SH-6" value="" style="points=[[0.015,0.14,0],[0.5,0,0],[0.985,0.14,0],[1,0.57,0],[0.99,0.98,0],[0.5,1,0],[0.01,0.98,0],[0,0.57,0]];verticalLabelPosition=bottom;sketch=0;html=1;verticalAlign=top;aspect=fixed;align=center;pointerEvents=1;shape=mxgraph.cisco19.tablet;fillColor=#005073;strokeColor=none;" vertex="1" parent="1">
          <mxGeometry x="-320" y="78" width="50" height="40" as="geometry" />
        </mxCell>
        <mxCell id="pZ1TECeENT99QVJP51SH-7" value="" style="endArrow=none;html=1;rounded=0;strokeWidth=3;exitX=0.25;exitY=0.5;exitDx=0;exitDy=0;exitPerimeter=0;" edge="1" parent="1">
          <mxGeometry width="50" height="50" relative="1" as="geometry">
            <mxPoint x="-330" y="331" as="sourcePoint" />
            <mxPoint x="-250" y="280" as="targetPoint" />
          </mxGeometry>
        </mxCell>
        <mxCell id="pZ1TECeENT99QVJP51SH-8" value="" style="image;html=1;image=img/lib/clip_art/computers/Server_128x128.png" vertex="1" parent="1">
          <mxGeometry x="-470" y="308.5" width="40" height="45" as="geometry" />
        </mxCell>
        <mxCell id="pZ1TECeENT99QVJP51SH-9" value="" style="shape=mxgraph.cisco.computers_and_peripherals.pc;html=1;pointerEvents=1;dashed=0;fillColor=#036897;strokeColor=#ffffff;strokeWidth=2;verticalLabelPosition=bottom;verticalAlign=top;align=center;outlineConnect=0;" vertex="1" parent="1">
          <mxGeometry x="-251.11" y="250" width="40" height="40" as="geometry" />
        </mxCell>
        <mxCell id="pZ1TECeENT99QVJP51SH-10" value="" style="shape=mxgraph.cisco.computers_and_peripherals.pc;html=1;pointerEvents=1;dashed=0;fillColor=#036897;strokeColor=#ffffff;strokeWidth=2;verticalLabelPosition=bottom;verticalAlign=top;align=center;outlineConnect=0;" vertex="1" parent="1">
          <mxGeometry x="-240" y="304" width="40" height="40" as="geometry" />
        </mxCell>
        <mxCell id="pZ1TECeENT99QVJP51SH-11" value="" style="shape=mxgraph.cisco.computers_and_peripherals.pc;html=1;pointerEvents=1;dashed=0;fillColor=#036897;strokeColor=#ffffff;strokeWidth=2;verticalLabelPosition=bottom;verticalAlign=top;align=center;outlineConnect=0;" vertex="1" parent="1">
          <mxGeometry x="-410" y="220" width="40" height="40" as="geometry" />
        </mxCell>
        <mxCell id="pZ1TECeENT99QVJP51SH-12" value="" style="points=[[0.22,0.185,0],[0.5,0,0],[0.78,0.185,0],[0.975,0.49,0],[1,0.73,0],[0.975,0.97,0],[0.5,1,0],[0.025,0.97,0],[0,0.73,0],[0.025,0.49,0]];verticalLabelPosition=bottom;sketch=0;html=1;verticalAlign=top;aspect=fixed;align=center;pointerEvents=1;shape=mxgraph.cisco19.printer;fillColor=#005073;strokeColor=none;" vertex="1" parent="1">
          <mxGeometry y="210" width="38.89" height="35" as="geometry" />
        </mxCell>
        <mxCell id="pZ1TECeENT99QVJP51SH-13" value="" style="shape=mxgraph.cisco.misc.access_point;html=1;pointerEvents=1;dashed=0;fillColor=#036897;strokeColor=#ffffff;strokeWidth=2;verticalLabelPosition=bottom;verticalAlign=top;align=center;outlineConnect=0;" vertex="1" parent="1">
          <mxGeometry x="-60" y="210" width="40" height="24.5" as="geometry" />
        </mxCell>
        <mxCell id="pZ1TECeENT99QVJP51SH-14" value="" style="shape=mxgraph.arrows2.wedgeArrowDashed2;html=1;bendable=0;startWidth=28;stepSize=15;rounded=0;" edge="1" parent="1">
          <mxGeometry width="100" height="100" relative="1" as="geometry">
            <mxPoint x="-40" y="120" as="sourcePoint" />
            <mxPoint x="-40" y="215.5" as="targetPoint" />
          </mxGeometry>
        </mxCell>
        <mxCell id="pZ1TECeENT99QVJP51SH-15" value="" style="points=[[0.13,0.02,0],[0.5,0,0],[0.87,0.02,0],[0.885,0.4,0],[0.985,0.985,0],[0.5,1,0],[0.015,0.985,0],[0.115,0.4,0]];verticalLabelPosition=bottom;sketch=0;html=1;verticalAlign=top;aspect=fixed;align=center;pointerEvents=1;shape=mxgraph.cisco19.laptop;fillColor=#005073;strokeColor=none;" vertex="1" parent="1">
          <mxGeometry x="-100" y="80" width="50" height="35" as="geometry" />
        </mxCell>
        <mxCell id="pZ1TECeENT99QVJP51SH-16" value="" style="points=[[0.015,0.14,0],[0.5,0,0],[0.985,0.14,0],[1,0.57,0],[0.99,0.98,0],[0.5,1,0],[0.01,0.98,0],[0,0.57,0]];verticalLabelPosition=bottom;sketch=0;html=1;verticalAlign=top;aspect=fixed;align=center;pointerEvents=1;shape=mxgraph.cisco19.tablet;fillColor=#005073;strokeColor=none;" vertex="1" parent="1">
          <mxGeometry x="-30" y="78" width="50" height="40" as="geometry" />
        </mxCell>
        <mxCell id="pZ1TECeENT99QVJP51SH-18" value="" style="shape=mxgraph.cisco.computers_and_peripherals.pc;html=1;pointerEvents=1;dashed=0;fillColor=#036897;strokeColor=#ffffff;strokeWidth=2;verticalLabelPosition=bottom;verticalAlign=top;align=center;outlineConnect=0;" vertex="1" parent="1">
          <mxGeometry x="-165.17" y="306.94" width="40" height="35" as="geometry" />
        </mxCell>
        <mxCell id="pZ1TECeENT99QVJP51SH-19" value="" style="shape=mxgraph.cisco.computers_and_peripherals.pc;html=1;pointerEvents=1;dashed=0;fillColor=#036897;strokeColor=#ffffff;strokeWidth=2;verticalLabelPosition=bottom;verticalAlign=top;align=center;outlineConnect=0;" vertex="1" parent="1">
          <mxGeometry x="-125.17" y="215" width="40" height="35" as="geometry" />
        </mxCell>
        <mxCell id="pZ1TECeENT99QVJP51SH-20" value="" style="shape=mxgraph.cisco.computers_and_peripherals.pc;html=1;pointerEvents=1;dashed=0;fillColor=#036897;strokeColor=#ffffff;strokeWidth=2;verticalLabelPosition=bottom;verticalAlign=top;align=center;outlineConnect=0;" vertex="1" parent="1">
          <mxGeometry x="60" y="306.94" width="40" height="35" as="geometry" />
        </mxCell>
        <mxCell id="pZ1TECeENT99QVJP51SH-26" value="" style="points=[[0.22,0.185,0],[0.5,0,0],[0.78,0.185,0],[0.975,0.49,0],[1,0.73,0],[0.975,0.97,0],[0.5,1,0],[0.025,0.97,0],[0,0.73,0],[0.025,0.49,0]];verticalLabelPosition=bottom;sketch=0;html=1;verticalAlign=top;aspect=fixed;align=center;pointerEvents=1;shape=mxgraph.cisco19.printer;fillColor=#005073;strokeColor=none;" vertex="1" parent="1">
          <mxGeometry x="281.17" y="207.06" width="38.89" height="35" as="geometry" />
        </mxCell>
        <mxCell id="pZ1TECeENT99QVJP51SH-27" value="" style="shape=mxgraph.cisco.misc.access_point;html=1;pointerEvents=1;dashed=0;fillColor=#036897;strokeColor=#ffffff;strokeWidth=2;verticalLabelPosition=bottom;verticalAlign=top;align=center;outlineConnect=0;" vertex="1" parent="1">
          <mxGeometry x="221.17000000000002" y="207.06" width="40" height="24.5" as="geometry" />
        </mxCell>
        <mxCell id="pZ1TECeENT99QVJP51SH-28" value="" style="shape=mxgraph.arrows2.wedgeArrowDashed2;html=1;bendable=0;startWidth=28;stepSize=15;rounded=0;" edge="1" parent="1">
          <mxGeometry width="100" height="100" relative="1" as="geometry">
            <mxPoint x="241.17000000000002" y="117.06" as="sourcePoint" />
            <mxPoint x="241.17000000000002" y="212.56" as="targetPoint" />
          </mxGeometry>
        </mxCell>
        <mxCell id="pZ1TECeENT99QVJP51SH-29" value="" style="points=[[0.13,0.02,0],[0.5,0,0],[0.87,0.02,0],[0.885,0.4,0],[0.985,0.985,0],[0.5,1,0],[0.015,0.985,0],[0.115,0.4,0]];verticalLabelPosition=bottom;sketch=0;html=1;verticalAlign=top;aspect=fixed;align=center;pointerEvents=1;shape=mxgraph.cisco19.laptop;fillColor=#005073;strokeColor=none;" vertex="1" parent="1">
          <mxGeometry x="181.17000000000002" y="77.06" width="50" height="35" as="geometry" />
        </mxCell>
        <mxCell id="pZ1TECeENT99QVJP51SH-30" value="" style="points=[[0.015,0.14,0],[0.5,0,0],[0.985,0.14,0],[1,0.57,0],[0.99,0.98,0],[0.5,1,0],[0.01,0.98,0],[0,0.57,0]];verticalLabelPosition=bottom;sketch=0;html=1;verticalAlign=top;aspect=fixed;align=center;pointerEvents=1;shape=mxgraph.cisco19.tablet;fillColor=#005073;strokeColor=none;" vertex="1" parent="1">
          <mxGeometry x="251.17000000000002" y="75.06" width="50" height="40" as="geometry" />
        </mxCell>
        <mxCell id="pZ1TECeENT99QVJP51SH-31" value="" style="shape=mxgraph.cisco.computers_and_peripherals.pc;html=1;pointerEvents=1;dashed=0;fillColor=#036897;strokeColor=#ffffff;strokeWidth=2;verticalLabelPosition=bottom;verticalAlign=top;align=center;outlineConnect=0;" vertex="1" parent="1">
          <mxGeometry x="120.00000000000003" y="306.5" width="40" height="35" as="geometry" />
        </mxCell>
        <mxCell id="pZ1TECeENT99QVJP51SH-32" value="" style="shape=mxgraph.cisco.computers_and_peripherals.pc;html=1;pointerEvents=1;dashed=0;fillColor=#036897;strokeColor=#ffffff;strokeWidth=2;verticalLabelPosition=bottom;verticalAlign=top;align=center;outlineConnect=0;" vertex="1" parent="1">
          <mxGeometry x="156" y="212.06" width="40" height="35" as="geometry" />
        </mxCell>
        <mxCell id="pZ1TECeENT99QVJP51SH-33" value="" style="shape=mxgraph.cisco.computers_and_peripherals.pc;html=1;pointerEvents=1;dashed=0;fillColor=#036897;strokeColor=#ffffff;strokeWidth=2;verticalLabelPosition=bottom;verticalAlign=top;align=center;outlineConnect=0;" vertex="1" parent="1">
          <mxGeometry x="338.17" y="303" width="40" height="35" as="geometry" />
        </mxCell>
        <mxCell id="pZ1TECeENT99QVJP51SH-34" value="" style="points=[[0.22,0.185,0],[0.5,0,0],[0.78,0.185,0],[0.975,0.49,0],[1,0.73,0],[0.975,0.97,0],[0.5,1,0],[0.025,0.97,0],[0,0.73,0],[0.025,0.49,0]];verticalLabelPosition=bottom;sketch=0;html=1;verticalAlign=top;aspect=fixed;align=center;pointerEvents=1;shape=mxgraph.cisco19.printer;fillColor=#005073;strokeColor=none;" vertex="1" parent="1">
          <mxGeometry x="-270" y="567" width="38.89" height="35" as="geometry" />
        </mxCell>
        <mxCell id="pZ1TECeENT99QVJP51SH-35" value="" style="shape=mxgraph.cisco.misc.access_point;html=1;pointerEvents=1;dashed=0;fillColor=#036897;strokeColor=#ffffff;strokeWidth=2;verticalLabelPosition=bottom;verticalAlign=top;align=center;outlineConnect=0;" vertex="1" parent="1">
          <mxGeometry x="-210" y="585" width="40" height="24.5" as="geometry" />
        </mxCell>
        <mxCell id="pZ1TECeENT99QVJP51SH-36" value="" style="shape=mxgraph.arrows2.wedgeArrowDashed2;html=1;bendable=0;startWidth=28;stepSize=15;rounded=0;" edge="1" parent="1">
          <mxGeometry width="100" height="100" relative="1" as="geometry">
            <mxPoint x="-191.11" y="680" as="sourcePoint" />
            <mxPoint x="-190" y="592" as="targetPoint" />
          </mxGeometry>
        </mxCell>
        <mxCell id="pZ1TECeENT99QVJP51SH-37" value="" style="points=[[0.13,0.02,0],[0.5,0,0],[0.87,0.02,0],[0.885,0.4,0],[0.985,0.985,0],[0.5,1,0],[0.015,0.985,0],[0.115,0.4,0]];verticalLabelPosition=bottom;sketch=0;html=1;verticalAlign=top;aspect=fixed;align=center;pointerEvents=1;shape=mxgraph.cisco19.laptop;fillColor=#005073;strokeColor=none;" vertex="1" parent="1">
          <mxGeometry x="-255.17" y="682.5" width="50" height="35" as="geometry" />
        </mxCell>
        <mxCell id="pZ1TECeENT99QVJP51SH-38" value="" style="points=[[0.015,0.14,0],[0.5,0,0],[0.985,0.14,0],[1,0.57,0],[0.99,0.98,0],[0.5,1,0],[0.01,0.98,0],[0,0.57,0]];verticalLabelPosition=bottom;sketch=0;html=1;verticalAlign=top;aspect=fixed;align=center;pointerEvents=1;shape=mxgraph.cisco19.tablet;fillColor=#005073;strokeColor=none;" vertex="1" parent="1">
          <mxGeometry x="-189.17" y="680" width="50" height="40" as="geometry" />
        </mxCell>
        <mxCell id="pZ1TECeENT99QVJP51SH-39" value="" style="shape=mxgraph.cisco.computers_and_peripherals.pc;html=1;pointerEvents=1;dashed=0;fillColor=#036897;strokeColor=#ffffff;strokeWidth=2;verticalLabelPosition=bottom;verticalAlign=top;align=center;outlineConnect=0;" vertex="1" parent="1">
          <mxGeometry x="-94.99999999999999" y="474.5" width="40" height="35" as="geometry" />
        </mxCell>
        <mxCell id="pZ1TECeENT99QVJP51SH-40" value="" style="shape=mxgraph.cisco.computers_and_peripherals.pc;html=1;pointerEvents=1;dashed=0;fillColor=#036897;strokeColor=#ffffff;strokeWidth=2;verticalLabelPosition=bottom;verticalAlign=top;align=center;outlineConnect=0;" vertex="1" parent="1">
          <mxGeometry x="-325.16999999999996" y="474.5" width="40" height="35" as="geometry" />
        </mxCell>
        <mxCell id="pZ1TECeENT99QVJP51SH-41" value="" style="shape=mxgraph.cisco.computers_and_peripherals.pc;html=1;pointerEvents=1;dashed=0;fillColor=#036897;strokeColor=#ffffff;strokeWidth=2;verticalLabelPosition=bottom;verticalAlign=top;align=center;outlineConnect=0;" vertex="1" parent="1">
          <mxGeometry x="-154.17" y="567" width="40" height="35" as="geometry" />
        </mxCell>
        <mxCell id="pZ1TECeENT99QVJP51SH-43" value="" style="shape=mxgraph.cisco.misc.access_point;html=1;pointerEvents=1;dashed=0;fillColor=#036897;strokeColor=#ffffff;strokeWidth=2;verticalLabelPosition=bottom;verticalAlign=top;align=center;outlineConnect=0;" vertex="1" parent="1">
          <mxGeometry x="89.17000000000002" y="585" width="40" height="24.5" as="geometry" />
        </mxCell>
        <mxCell id="pZ1TECeENT99QVJP51SH-44" value="" style="shape=mxgraph.arrows2.wedgeArrowDashed2;html=1;bendable=0;startWidth=28;stepSize=15;rounded=0;" edge="1" parent="1">
          <mxGeometry width="100" height="100" relative="1" as="geometry">
            <mxPoint x="108.06" y="680" as="sourcePoint" />
            <mxPoint x="109.17000000000002" y="592" as="targetPoint" />
          </mxGeometry>
        </mxCell>
        <mxCell id="pZ1TECeENT99QVJP51SH-45" value="" style="points=[[0.13,0.02,0],[0.5,0,0],[0.87,0.02,0],[0.885,0.4,0],[0.985,0.985,0],[0.5,1,0],[0.015,0.985,0],[0.115,0.4,0]];verticalLabelPosition=bottom;sketch=0;html=1;verticalAlign=top;aspect=fixed;align=center;pointerEvents=1;shape=mxgraph.cisco19.laptop;fillColor=#005073;strokeColor=none;" vertex="1" parent="1">
          <mxGeometry x="44.00000000000003" y="682.5" width="50" height="35" as="geometry" />
        </mxCell>
        <mxCell id="pZ1TECeENT99QVJP51SH-46" value="" style="points=[[0.015,0.14,0],[0.5,0,0],[0.985,0.14,0],[1,0.57,0],[0.99,0.98,0],[0.5,1,0],[0.01,0.98,0],[0,0.57,0]];verticalLabelPosition=bottom;sketch=0;html=1;verticalAlign=top;aspect=fixed;align=center;pointerEvents=1;shape=mxgraph.cisco19.tablet;fillColor=#005073;strokeColor=none;" vertex="1" parent="1">
          <mxGeometry x="110.00000000000003" y="680" width="50" height="40" as="geometry" />
        </mxCell>
        <mxCell id="pZ1TECeENT99QVJP51SH-47" value="" style="shape=mxgraph.cisco.computers_and_peripherals.pc;html=1;pointerEvents=1;dashed=0;fillColor=#036897;strokeColor=#ffffff;strokeWidth=2;verticalLabelPosition=bottom;verticalAlign=top;align=center;outlineConnect=0;" vertex="1" parent="1">
          <mxGeometry x="30" y="579.75" width="40" height="35" as="geometry" />
        </mxCell>
        <mxCell id="pZ1TECeENT99QVJP51SH-48" value="" style="points=[[0.22,0.185,0],[0.5,0,0],[0.78,0.185,0],[0.975,0.49,0],[1,0.73,0],[0.975,0.97,0],[0.5,1,0],[0.025,0.97,0],[0,0.73,0],[0.025,0.49,0]];verticalLabelPosition=bottom;sketch=0;html=1;verticalAlign=top;aspect=fixed;align=center;pointerEvents=1;shape=mxgraph.cisco19.printer;fillColor=#005073;strokeColor=none;" vertex="1" parent="1">
          <mxGeometry x="151.11" y="574.5" width="38.89" height="35" as="geometry" />
        </mxCell>
        <mxCell id="pZ1TECeENT99QVJP51SH-49" value="" style="shape=mxgraph.cisco.computers_and_peripherals.pc;html=1;pointerEvents=1;dashed=0;fillColor=#036897;strokeColor=#ffffff;strokeWidth=2;verticalLabelPosition=bottom;verticalAlign=top;align=center;outlineConnect=0;" vertex="1" parent="1">
          <mxGeometry x="-15.169999999999987" y="477.5" width="40" height="35" as="geometry" />
        </mxCell>
        <mxCell id="pZ1TECeENT99QVJP51SH-50" value="" style="shape=mxgraph.cisco.computers_and_peripherals.pc;html=1;pointerEvents=1;dashed=0;fillColor=#036897;strokeColor=#ffffff;strokeWidth=2;verticalLabelPosition=bottom;verticalAlign=top;align=center;outlineConnect=0;" vertex="1" parent="1">
          <mxGeometry x="210" y="469" width="40" height="35" as="geometry" />
        </mxCell>
        <mxCell id="pZ1TECeENT99QVJP51SH-51" value="" style="image;html=1;image=img/lib/clip_art/networking/Router_Icon_128x128.png" vertex="1" parent="1">
          <mxGeometry x="-800" y="370" width="80" height="80" as="geometry" />
        </mxCell>
      </root>
    </mxGraphModel>
  </diagram>
</mxfile>
